<?xml version="1.0" encoding="UTF-8"?>
<svg version="1.1" xmlns="http://www.w3.org/2000/svg" viewBox="0 0 1273 196" width="1273" height="196">
<path d="M0 0 C6.5566913 4.95513884 12.69390228 10.64808415 17.5703125 17.30078125 C17.5703125 17.96078125 17.5703125 18.62078125 17.5703125 19.30078125 C16.6498967 19.30664749 15.7294809 19.31251373 14.78117371 19.31855774 C6.11412649 19.37642162 -2.55266129 19.44846185 -11.21945667 19.53649616 C-15.67533885 19.58125553 -20.13112842 19.62049918 -24.5871582 19.6472168 C-28.88615949 19.67319453 -33.18480546 19.71355713 -37.48358727 19.76396751 C-39.12501296 19.7806738 -40.76650016 19.79216461 -42.40799904 19.79839516 C-44.70442731 19.80799571 -46.99993881 19.83600439 -49.29614258 19.8684082 C-50.60408279 19.87951126 -51.91202301 19.89061432 -53.25959778 19.90205383 C-56.38736015 20.04659376 -56.38736015 20.04659376 -58.39115906 21.66374207 C-59.69574688 23.35022786 -59.69574688 23.35022786 -59.1796875 25.92578125 C-58.65223105 28.23202195 -58.65223105 28.23202195 -57.4296875 29.30078125 C-54.91539904 29.40985227 -52.42756607 29.45500366 -49.91235352 29.45849609 C-48.73189453 29.46611717 -48.73189453 29.46611717 -47.52758789 29.47389221 C-45.81314278 29.4846185 -44.09868347 29.49322976 -42.38421822 29.50001144 C-39.67411495 29.51175984 -36.96417399 29.5312011 -34.25413513 29.5531311 C-26.54700078 29.61488985 -18.83988229 29.66885377 -11.13256836 29.70214844 C-6.42397369 29.72304097 -1.71567315 29.75830037 2.99275398 29.80290604 C4.79131683 29.81711026 6.58993174 29.82579839 8.3885479 29.82896042 C10.90054175 29.83384437 13.41174879 29.85693574 15.92358398 29.88427734 C17.04655632 29.87976814 17.04655632 29.87976814 18.19221497 29.87516785 C20.26145935 29.90878296 20.26145935 29.90878296 23.5703125 30.30078125 C29.76816561 39.59756092 29.33855863 54.78954039 27.5703125 65.30078125 C24.68476611 78.65205658 18.76706187 90.91116244 8.5703125 100.30078125 C7.9103125 100.30078125 7.2503125 100.30078125 6.5703125 100.30078125 C6.5703125 100.96078125 6.5703125 101.62078125 6.5703125 102.30078125 C4.53844309 103.85133827 2.53359421 105.24442318 0.3828125 106.61328125 C-0.24488037 107.01482422 -0.87257324 107.41636719 -1.51928711 107.83007812 C-12.2039848 114.45633022 -22.66603319 117.48206455 -35.1796875 117.42578125 C-36.05496094 117.42964844 -36.93023437 117.43351563 -37.83203125 117.4375 C-38.66347656 117.43621094 -39.49492188 117.43492187 -40.3515625 117.43359375 C-41.11049805 117.43246582 -41.86943359 117.43133789 -42.65136719 117.43017578 C-44.4296875 117.30078125 -44.4296875 117.30078125 -45.4296875 116.30078125 C-45.52823172 114.71014815 -45.55767444 113.11516648 -45.55908203 111.52148438 C-45.56223419 110.50372925 -45.56538635 109.48597412 -45.56863403 108.43737793 C-45.5666098 107.33011353 -45.56458557 106.22284912 -45.5625 105.08203125 C-45.56345673 103.95381958 -45.56441345 102.82560791 -45.56539917 101.66320801 C-45.56608118 99.27237899 -45.56422547 96.88154814 -45.56005859 94.49072266 C-45.55471066 90.81668974 -45.56000293 87.14277908 -45.56640625 83.46875 C-45.56574547 81.15234348 -45.56446432 78.83593703 -45.5625 76.51953125 C-45.56452423 75.41226685 -45.56654846 74.30500244 -45.56863403 73.16418457 C-45.56390579 71.63755188 -45.56390579 71.63755188 -45.55908203 70.08007812 C-45.55828644 69.17930542 -45.55749084 68.27853271 -45.55667114 67.35046387 C-45.4296875 65.30078125 -45.4296875 65.30078125 -44.4296875 64.30078125 C-42.92651981 64.17834815 -41.41780583 64.1230184 -39.90991211 64.09545898 C-38.94899155 64.07551376 -37.98807098 64.05556854 -36.99803162 64.03501892 C-35.43086143 64.00995018 -35.43086143 64.00995018 -33.83203125 63.984375 C-32.76803604 63.9635939 -31.70404083 63.94281281 -30.60780334 63.92140198 C-27.1943331 63.85578871 -23.78078321 63.79696702 -20.3671875 63.73828125 C-18.05923641 63.69510722 -15.7512935 63.65149331 -13.44335938 63.60742188 C-7.77222068 63.50009541 -2.10100198 63.39835133 3.5703125 63.30078125 C4.30365679 59.32323997 4.30365679 59.32323997 4.5703125 55.30078125 C-2.82701617 55.27763409 -10.22433705 55.25985402 -17.62169456 55.24896908 C-21.05640312 55.24374546 -24.49108693 55.23665724 -27.92578125 55.2253418 C-31.87239285 55.2124209 -35.81899434 55.20754873 -39.765625 55.203125 C-41.00210785 55.19796371 -42.2385907 55.19280243 -43.51254272 55.18748474 C-44.65357452 55.18740921 -45.79460632 55.18733368 -46.97021484 55.18725586 C-47.9783725 55.18503525 -48.98653015 55.18281464 -50.02523804 55.18052673 C-52.44301811 55.13995577 -52.44301811 55.13995577 -54.4296875 56.30078125 C-54.7596875 75.44078125 -55.0896875 94.58078125 -55.4296875 114.30078125 C-72.49986296 108.61072276 -84.99861862 98.65852881 -93.5546875 82.73828125 C-101.86785702 65.32437879 -102.4074803 48.36451649 -96.4296875 30.30078125 C-90.13284016 14.1854455 -77.96907672 1.6120318 -62.23828125 -5.63671875 C-41.51438936 -13.47663335 -18.60962713 -13.01477138 0 0 Z " fill="#000000" transform="translate(124.4296875,32.69921875)"/>
<path d="M0 0 C2.9375 2.5625 2.9375 2.5625 5 5 C5 5.66 5 6.32 5 7 C5.65226562 6.44570312 6.30453125 5.89140625 6.9765625 5.3203125 C7.85054688 4.59585938 8.72453125 3.87140625 9.625 3.125 C10.48351562 2.40570313 11.34203125 1.68640625 12.2265625 0.9453125 C19.42450393 -4.10338445 27.52447817 -3.7275126 36 -3 C41.00268765 -1.66594996 44.86544138 0.99608562 47.98088074 5.20254517 C52.40574365 13.00682434 52.40814089 21.49917369 52.29296875 30.2265625 C52.28872391 31.45539154 52.28447906 32.68422058 52.28010559 33.95028687 C52.2634279 37.8420889 52.22579504 41.73335673 52.1875 45.625 C52.17243911 48.27733623 52.15875317 50.92968064 52.14648438 53.58203125 C52.11355998 60.05489065 52.06185268 66.52735501 52 73 C47.38 73 42.76 73 38 73 C37.27688309 69.38441546 36.88145211 66.8069902 36.91821289 63.24487305 C36.9247438 62.33009689 36.93127472 61.41532074 36.93800354 60.4728241 C36.94943893 59.49565933 36.96087433 58.51849457 36.97265625 57.51171875 C36.98530498 55.42252771 36.99766575 53.33333491 37.00976562 51.24414062 C37.03454358 47.96584532 37.06249855 44.68764255 37.09594727 41.40942383 C37.12629191 38.23518307 37.14396903 35.06105898 37.16015625 31.88671875 C37.17361588 30.91562668 37.1870755 29.94453461 37.20094299 28.9440155 C37.22164618 23.28081515 36.81183265 18.38965778 35 13 C30.79632695 9.87168517 27.14415598 9.37915359 22 10 C17.07486759 11.46922336 14.68518773 12.89417889 11.91967773 17.35742188 C9.30255599 22.76589049 9.3973892 28.02315029 9.390625 33.9375 C9.37408875 35.05817871 9.35755249 36.17885742 9.34051514 37.33349609 C9.29219379 40.88905404 9.27069853 44.44418473 9.25 48 C9.2218272 50.42059423 9.19189795 52.84116869 9.16015625 55.26171875 C9.08643846 61.17444398 9.03676649 67.08693422 9 73 C4.38 73 -0.24 73 -5 73 C-5.029729 70.80657959 -5.029729 70.80657959 -5.06005859 68.56884766 C-5.13652481 63.10806993 -5.22517728 57.64754449 -5.31738281 52.18701172 C-5.35550385 49.83029181 -5.39038516 47.47351706 -5.421875 45.11669922 C-5.46789381 41.71562184 -5.52582589 38.31491657 -5.5859375 34.9140625 C-5.59748871 33.87198639 -5.60903992 32.82991028 -5.62094116 31.7562561 C-5.44258021 20.46902825 -5.44258021 20.46902825 -10.125 10.875 C-14.82882237 9.44340189 -18.66093909 8.98501464 -23.1875 10.94921875 C-28.48511415 14.03624758 -31.0475293 17.14258791 -33 23 C-33.10981132 24.60507255 -33.16604083 26.21409972 -33.18945312 27.82275391 C-33.20617065 28.80031647 -33.22288818 29.77787903 -33.2401123 30.7850647 C-33.25368774 31.83825897 -33.26726318 32.89145325 -33.28125 33.9765625 C-33.29965942 35.05755219 -33.31806885 36.13854187 -33.33703613 37.25228882 C-33.41584838 41.88618931 -33.48364558 46.5202357 -33.55224609 51.15429688 C-33.60382007 54.53262873 -33.66111615 57.9108295 -33.71875 61.2890625 C-33.73232544 62.34630524 -33.74590088 63.40354797 -33.7598877 64.49282837 C-33.77660522 65.46408661 -33.79332275 66.43534485 -33.81054688 67.43603516 C-33.82307495 68.29524567 -33.83560303 69.15445618 -33.84851074 70.03970337 C-34 72 -34 72 -35 73 C-39.29 73 -43.58 73 -48 73 C-48 48.25 -48 23.5 -48 -2 C-43.71 -2 -39.42 -2 -35 -2 C-34.67 0.64 -34.34 3.28 -34 6 C-33.57589844 5.60167969 -33.15179688 5.20335938 -32.71484375 4.79296875 C-23.55124609 -3.4844788 -11.24498511 -6.79384517 0 0 Z " fill="#000000" transform="translate(430,65)"/>
<path d="M0 0 C4.95 0 9.9 0 15 0 C19.29 17.49 23.58 34.98 28 53 C32.2371164 35.93271439 32.2371164 35.93271439 36.46655273 18.86352539 C36.99695329 16.733166 37.52761543 14.60287171 38.05859375 12.47265625 C38.33417114 11.35499878 38.60974854 10.23734131 38.89367676 9.08581543 C39.15749146 8.03019409 39.42130615 6.97457275 39.69311523 5.88696289 C39.92183823 4.96540909 40.15056122 4.04385529 40.38621521 3.09437561 C41 1 41 1 42 0 C44.53049402 -0.07313567 47.03304837 -0.09247527 49.5625 -0.0625 C50.62887695 -0.05573242 50.62887695 -0.05573242 51.71679688 -0.04882812 C53.47790013 -0.03700864 55.23896036 -0.01907263 57 0 C60.27401781 10.99817877 63.02481515 22.09052293 65.6875 33.25 C66.29068522 35.77495019 66.8947798 38.29966411 67.50190735 40.82366943 C67.8759922 42.37897354 68.2478233 43.93482191 68.61711121 45.49127197 C69.51854277 49.34570672 69.51854277 49.34570672 71 53 C71.24096657 52.04826401 71.24096657 52.04826401 71.48680115 51.07730103 C73.1548584 44.4909347 74.82611922 37.90538732 76.49926758 31.3203125 C77.12379339 28.86056161 77.74749393 26.40060105 78.37036133 23.94042969 C79.2642832 20.41025612 80.16114187 16.88084007 81.05859375 13.3515625 C81.3377916 12.24632233 81.61698944 11.14108215 81.90464783 10.00234985 C82.16484207 8.98144257 82.42503632 7.96053528 82.69311523 6.90869141 C82.92183823 6.00712311 83.15056122 5.10555481 83.38621521 4.17666626 C84 2 84 2 85 0 C89.62 0 94.24 0 99 0 C96.60102147 10.07570981 93.84938242 19.95142242 90.7878418 29.84472656 C88.17572475 38.32315067 85.75899332 46.84893329 83.3972168 55.40014648 C82.08018023 60.16463912 80.74959013 64.92423831 79.359375 69.66796875 C79.12186523 70.47903076 78.88435547 71.29009277 78.63964844 72.12573242 C78 74 78 74 77 75 C74.64686445 75.07271741 72.29166332 75.08370868 69.9375 75.0625 C68.00197266 75.04896484 68.00197266 75.04896484 66.02734375 75.03515625 C65.02832031 75.02355469 64.02929688 75.01195312 63 75 C62.85410431 74.45178085 62.70820862 73.90356171 62.55789185 73.33872986 C61.0336606 67.61176573 59.50853917 61.88503919 57.98291016 56.15844727 C57.41432421 54.02374198 56.84596214 51.88897704 56.27783203 49.75415039 C55.45925383 46.67838938 54.63985988 43.60284665 53.8203125 40.52734375 C53.56814972 39.57915268 53.31598694 38.63096161 53.05618286 37.65403748 C51.74988647 32.75522054 50.41139639 27.86961037 49 23 C47.76575553 27.56113826 46.53707684 32.12375765 45.3125 36.6875 C45.03996902 37.70268204 45.03996902 37.70268204 44.76193237 38.7383728 C42.16141917 48.44375933 39.68492929 58.16578777 37.46020508 67.96557617 C36.09845629 73.90154371 36.09845629 73.90154371 35 75 C31.40500204 75.11109388 27.82115727 75.06145187 24.22485352 75.02905273 C22.62855103 75.01467163 22.62855103 75.01467163 21 75 C16.45919814 60.92908052 12.2386988 46.77481467 8.13867188 32.56958008 C7.11102544 29.01415112 6.0751172 25.46118979 5.0390625 21.90820312 C4.38231016 19.63816611 3.72604161 17.36798905 3.0703125 15.09765625 C2.76102814 14.0404689 2.45174377 12.98328156 2.13308716 11.89405823 C1.85214203 10.91460739 1.5711969 9.93515656 1.28173828 8.92602539 C1.03336212 8.06844131 0.78498596 7.21085724 0.52908325 6.32728577 C0 4 0 4 0 0 Z " fill="#000000" transform="translate(1131,63)"/>
<path d="M0 0 C7.13363377 5.99183336 11.94584367 12.8771247 14.22265625 21.984375 C14.22265625 23.634375 14.22265625 25.284375 14.22265625 26.984375 C9.60265625 26.984375 4.98265625 26.984375 0.22265625 26.984375 C-0.62296875 25.128125 -1.46859375 23.271875 -2.33984375 21.359375 C-5.70327851 14.66408703 -8.83582619 10.36342897 -16.00390625 7.85546875 C-23.84251343 6.04593521 -34.60590264 5.34261169 -42.046875 8.890625 C-50.71913992 14.37196626 -55.42816265 21.21579269 -57.88671875 31.1640625 C-60.64150409 44.32218158 -60.53589868 60.50641348 -53.3984375 72.25390625 C-52.24360794 73.86935159 -51.01784639 75.4337467 -49.77734375 76.984375 C-49.77734375 77.644375 -49.77734375 78.304375 -49.77734375 78.984375 C-48.97296875 79.3865625 -48.97296875 79.3865625 -48.15234375 79.796875 C-46.36883519 80.68862928 -44.60031177 81.61045584 -42.83984375 82.546875 C-34.87705798 86.28450914 -24.66298834 86.35599264 -16.40234375 83.484375 C-9.05127042 80.02925139 -5.35153439 75.02367337 -2.56762695 67.47216797 C-1.92481983 65.61191953 -1.3229419 63.73768312 -0.72265625 61.86328125 C0.22265625 58.984375 0.22265625 58.984375 1.22265625 57.984375 C3.40905078 57.91178554 5.59766014 57.90063717 7.78515625 57.921875 C9.58146484 57.93541016 9.58146484 57.93541016 11.4140625 57.94921875 C12.80431641 57.96662109 12.80431641 57.96662109 14.22265625 57.984375 C16.34558112 66.27110244 12.16220864 74.16362689 8.0859375 81.3046875 C0.54456002 92.15035825 -9.45374445 97.04356272 -22.05078125 99.51171875 C-34.90350399 101.14188589 -46.99511331 98.76493232 -57.38671875 91.00390625 C-68.50905345 81.60807776 -73.80232587 70.43227278 -75.46484375 56.046875 C-76.74907264 39.11110655 -75.35968622 22.31253601 -64.234375 8.65234375 C-48.46937748 -9.39498585 -20.04212134 -14.545337 0 0 Z " fill="#000000" transform="translate(274.77734375,41.015625)"/>
<path d="M0 0 C9.00176008 8.50511125 11.24257665 19.25146741 11.625 31.25 C11.38743589 42.68277292 9.178507 54.06676964 1.26953125 62.65625 C-7.05912874 70.56919374 -13.67350933 72.03200876 -25.11328125 71.79296875 C-32.29125981 71.07909329 -35.65871759 68.46628241 -40.6875 63.4375 C-41.0175 74.9875 -41.3475 86.5375 -41.6875 98.4375 C-45.9775 98.4375 -50.2675 98.4375 -54.6875 98.4375 C-54.6875 64.1175 -54.6875 29.7975 -54.6875 -5.5625 C-50.7275 -5.5625 -46.7675 -5.5625 -42.6875 -5.5625 C-42.0275 -3.2525 -41.3675 -0.9425 -40.6875 1.4375 C-40.16800781 1.02757813 -39.64851562 0.61765625 -39.11328125 0.1953125 C-26.80562835 -9.31411247 -12.33772294 -10.11489352 0 0 Z M-34.6875 9.4375 C-40.51299259 16.8131937 -42.06979435 24.7329789 -42 33.9375 C-41.99653564 34.68290039 -41.99307129 35.42830078 -41.98950195 36.19628906 C-41.88284721 41.56791688 -41.19297688 45.61213712 -38.6875 50.4375 C-38.275 51.345 -37.8625 52.2525 -37.4375 53.1875 C-34.30142905 57.21959122 -31.00040197 59.10076868 -26.03125 59.82421875 C-19.6892509 60.07685333 -15.75987336 59.26765947 -10.6875 55.4375 C-2.77044268 47.30052442 -2.71275312 37.69527052 -2.6796875 26.8828125 C-3.11855101 19.62865677 -6.11734718 12.94645871 -11.3125 7.875 C-18.3651345 3.60630017 -28.67979598 3.57632534 -34.6875 9.4375 Z " fill="#000000" transform="translate(552.6875,68.5625)"/>
<path d="M0 0 C23.76 0 47.52 0 72 0 C72 4.29 72 8.58 72 13 C71 14 71 14 68.79173279 14.12025452 C67.81688431 14.11803391 66.84203583 14.11581329 65.83764648 14.11352539 C64.73658066 14.11344986 63.63551483 14.11337433 62.50108337 14.11329651 C61.3031868 14.10813522 60.10529022 14.10297394 58.87109375 14.09765625 C57.65172623 14.0962413 56.4323587 14.09482635 55.17604065 14.09336853 C51.2631693 14.08774967 47.35035419 14.07519396 43.4375 14.0625 C40.79231853 14.05748743 38.14713617 14.0529241 35.50195312 14.04882812 C29.00126274 14.03862296 22.50069467 14.01905121 16 14 C16 23.57 16 33.14 16 43 C32.17 43 48.34 43 65 43 C65 47.29 65 51.58 65 56 C48.83 56 32.66 56 16 56 C16 71.18 16 86.36 16 102 C11.05 102 6.1 102 1 102 C-0.95365306 100.04634694 -0.12022124 97.06600248 -0.12442017 94.46598816 C-0.12082489 93.52515884 -0.11722961 92.58432953 -0.11352539 91.61499023 C-0.11367142 90.62973358 -0.11381744 89.64447693 -0.1139679 88.62936401 C-0.11326832 85.35575193 -0.10547385 82.08219596 -0.09765625 78.80859375 C-0.09579223 76.54557832 -0.09436825 74.28256249 -0.09336853 72.01954651 C-0.0895421 66.05021052 -0.07971075 60.08089868 -0.06866455 54.11157227 C-0.05665917 46.95636749 -0.05204879 39.80115465 -0.04621124 32.64594269 C-0.03649906 21.76394497 -0.01734337 10.8820003 0 0 Z " fill="#000000" transform="translate(946,36)"/>
<path d="M0 0 C5.67094376 6.02537774 5.46644409 12.24624954 5.51171875 20.0859375 C5.52966995 21.23164215 5.54762115 22.3773468 5.56611633 23.55776978 C5.62015437 27.20514279 5.65409518 30.8523854 5.6875 34.5 C5.7206787 36.9778827 5.75516887 39.45574821 5.79101562 41.93359375 C5.87587728 47.99727889 5.94425486 54.06098104 6 60.125 C8.31 60.125 10.62 60.125 13 60.125 C13 63.425 13 66.725 13 70.125 C7.25803908 72.32404886 2.76896897 72.51292913 -3 70.125 C-5.72187538 67.47117151 -6.80369038 65.71392887 -8 62.125 C-8.825 62.8675 -9.65 63.61 -10.5 64.375 C-19.68883091 72.057823 -29.4631985 72.92064148 -41 72.125 C-47.22618084 70.58469297 -51.5439115 66.41919926 -55 61.125 C-57.9450129 55.05405191 -58.03848731 48.05684503 -56.32421875 41.56640625 C-55.62988344 39.7203299 -54.82652248 37.91579871 -54 36.125 C-53.34 36.125 -52.68 36.125 -52 36.125 C-52 35.465 -52 34.805 -52 34.125 C-44.523266 27.67272234 -35.40612026 26.43820657 -26 25.125 C-24.64322707 24.92970204 -23.2864562 24.73438984 -21.9296875 24.5390625 C-19.52007319 24.19765924 -17.1087339 23.86804745 -14.6953125 23.5546875 C-12.03883656 23.26976204 -12.03883656 23.26976204 -10 22.125 C-8.76368664 16.56380096 -8.76368664 16.56380096 -10.25 11.25 C-12.47750803 8.54516882 -14.20112994 7.2698244 -17.671875 6.640625 C-24.81575318 6.0241482 -29.77525725 6.01262862 -36.25 9.25 C-38.9553264 12.148564 -39.77030809 15.37443966 -41 19.125 C-45.29 19.125 -49.58 19.125 -54 19.125 C-52.2163829 4.69391617 -52.2163829 4.69391617 -47 0.125 C-32.75018813 -9.34112724 -14.42656605 -9.01660378 0 0 Z M-17.4921875 35.5625 C-20.47954136 36.23256068 -23.46428795 36.60556874 -26.5 37 C-32.12918431 37.83685899 -36.20318726 39.04779938 -41 42.125 C-43.2913508 45.85792911 -43.52673554 48.76061979 -43 53.125 C-41.21523759 56.09739241 -39.14791945 58.55104027 -36 60.125 C-28.34569396 60.78634939 -21.28224483 60.99633878 -15 56.125 C-11.55047569 52.73599366 -9.05050519 49.80985321 -8.90234375 44.8671875 C-8.91394531 43.59101562 -8.92554688 42.31484375 -8.9375 41 C-8.94652344 39.71867187 -8.95554687 38.43734375 -8.96484375 37.1171875 C-8.97644531 36.12976563 -8.98804688 35.14234375 -9 34.125 C-12.06016614 34.125 -14.55401753 34.78187919 -17.4921875 35.5625 Z " fill="#000000" transform="translate(693,67.875)"/>
<path d="M0 0 C8.22838341 7.57086419 9.53803627 17.68277688 10.3125 28.375 C10.3125 30.685 10.3125 32.995 10.3125 35.375 C-7.5075 35.375 -25.3275 35.375 -43.6875 35.375 C-41.05861824 47.25404011 -41.05861824 47.25404011 -34.25 55.75 C-27.8799547 58.6556347 -20.80280985 58.37634959 -14.1875 56.25 C-9.7905909 52.95231818 -7.16464747 49.32929493 -4.6875 44.375 C-0.0675 44.375 4.5525 44.375 9.3125 44.375 C7.07541619 53.71811475 3.48253561 60.91876978 -4.75 66.3125 C-13.74181927 71.29653697 -24.20424049 72.64728927 -34.2421875 70.2265625 C-43.53578756 66.99013308 -50.08317716 61.1830572 -54.9375 52.75 C-60.21999766 41.23459716 -59.90073686 26.46026637 -56.125 14.5625 C-52.92957601 6.82196029 -47.51671568 -0.56802865 -40.0703125 -4.65625 C-25.79806289 -10.45873837 -12.24977654 -9.30562424 0 0 Z M-40.171875 12.8515625 C-42.37224252 16.21333627 -42.37224252 16.21333627 -43.6875 24.375 C-30.4875 24.375 -17.2875 24.375 -3.6875 24.375 C-6.16487023 13.91247847 -6.16487023 13.91247847 -12.6875 6.375 C-23.37919717 1.09120936 -32.54638488 4.71083656 -40.171875 12.8515625 Z " fill="#000000" transform="translate(919.6875,69.625)"/>
<path d="M0 0 C6.78695257 5.72043145 10.74411177 11.82857091 12.125 20.6875 C13.40193345 35.88233239 12.32186506 50.55421105 2.125 62.6875 C-2.51406299 67.76147515 -7.26876751 70.00454343 -13.875 71.6875 C-14.7 71.914375 -15.525 72.14125 -16.375 72.375 C-25.80942456 73.55430307 -35.26079942 72.5951069 -43.1875 66.9375 C-44.4430164 65.88481754 -45.67370913 64.80166428 -46.875 63.6875 C-47.70837891 62.93339844 -47.70837891 62.93339844 -48.55859375 62.1640625 C-56.36126798 54.18626591 -57.9624324 42.41670447 -57.875 31.6875 C-57.24256437 19.59048666 -53.88335478 8.39856648 -44.65625 0.08203125 C-31.23626339 -10.42440564 -13.57197519 -9.96025948 0 0 Z M-36.55859375 10.06640625 C-43.68845517 18.84650266 -43.82166346 30.94101871 -42.875 41.6875 C-41.50336834 48.62828671 -39.1399821 53.3737799 -33.4609375 57.6640625 C-29.82127912 60.01280756 -26.95160761 59.91940633 -22.625 60 C-20.66820312 60.05607422 -20.66820312 60.05607422 -18.671875 60.11328125 C-14.29826367 59.62282484 -12.25384752 58.44929731 -8.875 55.6875 C-2.44312744 46.86664621 -0.79338942 35.37381257 -1.875 24.6875 C-3.30041503 17.73496545 -5.07894995 11.70065604 -11 7.4375 C-19.26936587 3.15483894 -29.5366857 3.61849613 -36.55859375 10.06640625 Z " fill="#000000" transform="translate(1112.875,68.3125)"/>
<path d="M0 0 C8.31962843 5.77795826 12.59598791 12.88213562 14.74609375 22.6796875 C15.12945723 26.1939074 15.16805033 29.64750897 15.12109375 33.1796875 C15.13269531 34.05238281 15.14429688 34.92507812 15.15625 35.82421875 C15.10619695 47.0861546 11.48778869 57.35550177 3.859375 65.7578125 C-3.61598127 72.74851895 -12.49605334 75.15017443 -22.63671875 74.9453125 C-33.33136571 73.85988564 -41.26444525 69.84079225 -48.25390625 61.6796875 C-49.99881335 59.10274023 -51.25501555 56.62207205 -52.25390625 53.6796875 C-52.60839844 52.66777344 -52.96289062 51.65585938 -53.328125 50.61328125 C-54.68093732 45.75245989 -54.58348988 40.87952315 -54.56640625 35.8671875 C-54.58251953 34.93326172 -54.59863281 33.99933594 -54.61523438 33.03710938 C-54.62325965 21.47268708 -51.31545518 12.14282973 -43.3671875 3.66796875 C-31.290715 -7.64927562 -14.00085398 -8.20154012 0 0 Z M-33.9375 12.05859375 C-41.21286673 21.01787325 -40.83457256 32.78681757 -40.25390625 43.6796875 C-39.17951754 50.20796466 -36.22412342 55.2927721 -31.25390625 59.6796875 C-27.63400018 62.12291981 -24.16699412 62.01189221 -19.87890625 62.0546875 C-17.94917969 62.09722656 -17.94917969 62.09722656 -15.98046875 62.140625 C-11.66962365 61.60741774 -9.59293809 60.40582803 -6.25390625 57.6796875 C0.5572048 47.94952886 1.70473357 37.34952952 0.74609375 25.6796875 C0.08467061 22.47156032 -0.86131698 19.6389397 -2.25390625 16.6796875 C-2.68703125 15.7515625 -3.12015625 14.8234375 -3.56640625 13.8671875 C-6.9979186 9.41893075 -10.63841156 7.53000631 -16.12890625 6.8046875 C-22.8654688 6.40008915 -28.74508789 7.29062949 -33.9375 12.05859375 Z " fill="#000000" transform="translate(353.25390625,66.3203125)"/>
<path d="M0 0 C5.33810984 5.5807512 7.26002307 10.41462421 7.22705078 18.09716797 C7.22689972 19.27793915 7.22674866 20.45871033 7.22659302 21.67526245 C7.21627045 22.93484772 7.20594788 24.19443298 7.1953125 25.4921875 C7.1924826 26.79326447 7.18965271 28.09434143 7.18673706 29.43484497 C7.17913675 32.8773582 7.15951973 36.31970003 7.1373291 39.762146 C7.11679261 43.28151125 7.10771873 46.80090447 7.09765625 50.3203125 C7.07626999 57.21361875 7.04111765 64.10678348 7 71 C2.38 71 -2.24 71 -7 71 C-7.01458252 69.39560059 -7.02916504 67.79120117 -7.04418945 66.13818359 C-7.10222027 60.17799747 -7.1794539 54.21818723 -7.26245117 48.25830078 C-7.29567781 45.6802379 -7.32371673 43.10210267 -7.34643555 40.52392578 C-7.38002207 36.81511646 -7.43234244 33.1069688 -7.48828125 29.3984375 C-7.49467117 28.24822113 -7.5010611 27.09800476 -7.50764465 25.91293335 C-7.61142167 20.24719916 -7.69402171 15.83720539 -11 11 C-14.59966498 7.82382502 -18.019957 7.47844009 -22.65625 7.6484375 C-27.8274307 8.4241146 -31.66661676 10.70170579 -35.375 14.3125 C-39.33383591 20.85980555 -39.32729956 27.51423723 -39.4140625 34.96484375 C-39.43342865 35.99815323 -39.4527948 37.03146271 -39.4727478 38.09608459 C-39.53223299 41.37647405 -39.57880452 44.65689918 -39.625 47.9375 C-39.66320836 50.16993666 -39.70226174 52.40235902 -39.7421875 54.63476562 C-39.83790899 60.08972683 -39.92205438 65.54475701 -40 71 C-44.62 71 -49.24 71 -54 71 C-54 46.25 -54 21.5 -54 -4 C-49.71 -4 -45.42 -4 -41 -4 C-40.67 -1.36 -40.34 1.28 -40 4 C-39.5875 3.60167969 -39.175 3.20335938 -38.75 2.79296875 C-28.43759077 -6.66774597 -11.31774545 -9.93753259 0 0 Z " fill="#000000" transform="translate(771,67)"/>
<path d="M0 0 C5.1869521 4.039201 8.26368315 8.91419557 9.359375 15.4140625 C9.61182937 17.82943678 9.7637268 20.2548949 9.8984375 22.6796875 C5.6084375 22.6796875 1.3184375 22.6796875 -3.1015625 22.6796875 C-3.6790625 21.2771875 -4.2565625 19.8746875 -4.8515625 18.4296875 C-6.78678808 14.06513619 -8.71636514 10.87228618 -13.1015625 8.6796875 C-18.8251113 8.1974548 -24.21118784 7.93704031 -29.6015625 10.0546875 C-37.50887411 18.35736469 -38.42081839 28.13473417 -38.31640625 39.1328125 C-37.83620498 47.06049893 -35.81550991 53.10510467 -30.1015625 58.6796875 C-25.6161719 61.42757943 -21.20930169 61.1734626 -16.1015625 60.6796875 C-10.85261392 59.09509925 -8.8497109 56.35153977 -6.1796875 51.8125 C-5.00238672 49.48349193 -4.03516195 47.11553333 -3.1015625 44.6796875 C-1.12301992 44.48571274 0.8563023 44.29967429 2.8359375 44.1171875 C3.93808594 44.01277344 5.04023437 43.90835938 6.17578125 43.80078125 C7.52349609 43.74083984 7.52349609 43.74083984 8.8984375 43.6796875 C9.2284375 44.0096875 9.5584375 44.3396875 9.8984375 44.6796875 C9.640443 52.8065141 7.63319247 59.75340663 1.91796875 65.76171875 C-6.11675702 72.5165767 -14.57574187 74.3153305 -24.92578125 74.0234375 C-33.4422363 73.10160719 -40.59174419 69.24181017 -46.1015625 62.6796875 C-54.21946615 50.21419545 -55.09245955 37.05513532 -53.1015625 22.6796875 C-50.91710933 13.11083284 -45.53146919 4.02548199 -37.1015625 -1.3203125 C-24.73440338 -6.80854978 -11.80798796 -7.41840136 0 0 Z " fill="#000000" transform="translate(844.1015625,66.3203125)"/>
<path d="M0 0 C4.62 0 9.24 0 14 0 C14 33.66 14 67.32 14 102 C9.38 102 4.76 102 0 102 C0 68.34 0 34.68 0 0 Z " fill="#000000" transform="translate(577,36)"/>
<path d="M0 0 C4.29 0 8.58 0 13 0 C14.94081408 1.94081408 14.12687049 4.87614979 14.13552856 7.45944214 C14.13350433 8.38934967 14.1314801 9.3192572 14.12939453 10.27734375 C14.13114685 11.25124054 14.13289917 12.22513733 14.13470459 13.22854614 C14.13912499 16.46488194 14.13618445 19.7011636 14.1328125 22.9375 C14.13348549 25.17569998 14.13445546 27.41389988 14.13571167 29.65209961 C14.1371889 34.34977919 14.13503329 39.0474398 14.13037109 43.74511719 C14.1246738 49.78160614 14.12795267 55.81805064 14.13394356 61.85453796 C14.1375485 66.47831561 14.13641089 71.10208264 14.13381577 75.7258606 C14.13314631 77.95232142 14.13397556 80.1787832 14.13629532 82.40524292 C14.13882074 85.51107355 14.1349828 88.6168311 14.12939453 91.72265625 C14.13141876 92.65256378 14.13344299 93.58247131 14.13552856 94.54055786 C14.11426227 100.88573773 14.11426227 100.88573773 13 102 C8.71 102 4.42 102 0 102 C0 68.34 0 34.68 0 0 Z " fill="#000000" transform="translate(1030,36)"/>
<path d="M0 0 C1.093125 0.00257812 2.18625 0.00515625 3.3125 0.0078125 C4.405625 0.00523438 5.49875 0.00265625 6.625 0 C9.3125 0.1328125 9.3125 0.1328125 10.3125 1.1328125 C10.40693335 3.43335085 10.42992128 5.73683423 10.42602539 8.03930664 C10.42617142 8.76121689 10.42631744 9.48312714 10.4264679 10.22691345 C10.42576869 12.62396197 10.41797595 15.02093373 10.41015625 17.41796875 C10.4082921 19.07563739 10.40686818 20.73330657 10.40586853 22.39097595 C10.40204312 26.76235464 10.39221265 31.13370031 10.38116455 35.50506592 C10.37095092 39.96235711 10.36637101 44.41965361 10.36132812 48.87695312 C10.3505904 57.62892312 10.33299342 66.3808599 10.3125 75.1328125 C5.6925 75.1328125 1.0725 75.1328125 -3.6875 75.1328125 C-3.71005209 65.50168232 -3.7284157 55.87056955 -3.73931217 46.23941898 C-3.74454074 41.76775701 -3.75163789 37.29611397 -3.76293945 32.82446289 C-3.77376929 28.51269277 -3.77977704 24.20094091 -3.78237724 19.88915825 C-3.78423132 18.24044952 -3.7878516 16.59174184 -3.79323006 14.94304085 C-3.80044178 12.64177378 -3.80149089 10.3405831 -3.80102539 8.03930664 C-3.803246 6.7269252 -3.80546661 5.41454376 -3.80775452 4.06239319 C-3.64840087 0.18029888 -3.64840087 0.18029888 0 0 Z " fill="#000000" transform="translate(611.6875,62.8671875)"/>
<path d="M0 0 C4.62 0 9.24 0 14 0 C14 4.95 14 9.9 14 15 C11.875625 15.185625 9.75125 15.37125 7.5625 15.5625 C5.77005859 15.71912109 5.77005859 15.71912109 3.94140625 15.87890625 C2.97074219 15.91886719 2.00007812 15.95882812 1 16 C0 15 0 15 -0.09765625 11.62109375 C-0.09098369 10.22652923 -0.07902532 8.83198257 -0.0625 7.4375 C-0.05798828 6.72658203 -0.05347656 6.01566406 -0.04882812 5.28320312 C-0.03700864 3.52209987 -0.01907263 1.76103964 0 0 Z " fill="#000000" transform="translate(608,36)"/>
</svg>
