<?xml version="1.0" encoding="utf-8"?>
<!DOCTYPE svg PUBLIC "-//W3C//DTD SVG 1.0//EN" "http://www.w3.org/TR/2001/REC-SVG-20010904/DTD/svg10.dtd">
<svg version="1.0" xmlns="http://www.w3.org/2000/svg" width="900px" height="277px" viewBox="0 0 900 277" preserveAspectRatio="xMidYMid meet">
 <g fill="#ffffff">
  <path d="M131.8 205.9 c-2.9 -1.6 -2.1 -2.9 1.7 -2.9 2.8 0 3.5 0.4 3.5 2 0 2.2 -2.4 2.6 -5.2 0.9z"/>
  <path d="M297.5 176.3 c-2.7 -7.1 -7.2 -19.1 -10.2 -26.8 -2.9 -7.7 -6.7 -17.6 -8.4 -22 -8.3 -22.1 -12.2 -28.5 -17 -28.5 -1 0 -2.1 -0.5 -2.4 -1 -0.4 -0.7 6.1 -1 18.7 -0.9 14.1 0 18.6 0.3 16.8 1.1 -7.2 2.9 -7.5 3.2 -7.8 7.9 -0.2 3.7 1.6 10 9.8 33 5.6 15.6 10.3 29 10.6 29.8 1 2.9 1.4 2 12.9 -27.9 9.8 -25.6 11.5 -32.3 9.6 -37.3 -0.6 -1.5 -2.1 -3.1 -3.3 -3.6 -7.6 -2.9 -7.5 -3 7.5 -3 8.1 -0.1 14.7 0.3 14.7 0.7 0 0.4 -1.5 1.3 -3.3 2 -6.9 2.5 -9.6 7.2 -21.4 37.2 -18.4 46.8 -20.5 52 -21.2 52 -0.5 0 -3 -5.7 -5.6 -12.7z"/>
  <path d="M668.5 188.4 c-12.9 -2.7 -20.6 -6.7 -28 -14.5 -12.8 -13.4 -16 -33.3 -8.1 -50.3 7.6 -16.3 22 -26.4 40.2 -28.1 18.1 -1.7 37.4 8.1 45.7 23.4 3.2 5.8 5.7 15.8 5.7 22.6 0 12.3 -6.4 27.1 -15 34.7 -10.3 9.2 -28.5 14.6 -40.5 12.2z m17 -3.1 c10.1 -3.4 19.2 -16.3 21.5 -30.4 2.3 -14.3 0.5 -30.1 -4.5 -40.2 -11.5 -23.1 -40.3 -23.7 -52.2 -1 -8.8 16.8 -8.4 42.9 1 58.2 3.7 6 10.9 12.2 16.1 13.9 4.9 1.6 12.8 1.4 18.1 -0.5z"/>
  <path d="M784 148.6 c-17.3 -21.7 -32.1 -39.5 -32.7 -39.5 -2 -0.1 -1.8 55 0.2 64.3 1.6 7.6 2.7 9.3 7 11.2 2.7 1.2 1.8 1.3 -9 1.3 -11.9 0.1 -12 0 -8.6 -1.6 2.3 -1.2 4 -3.1 5.5 -6.2 1.8 -4.2 2.1 -6.9 2.4 -30.6 0.4 -28.5 -0.6 -40.3 -3.6 -44.4 -1 -1.4 -3.9 -3.4 -6.3 -4.3 l-4.4 -1.7 12.6 0 12.6 -0.1 10.9 13.7 c6 7.6 13.1 16.4 15.8 19.8 2.6 3.3 9.8 12.2 15.9 19.7 6 7.6 11.3 13.5 11.7 13.3 0.4 -0.2 0.8 -10 0.9 -21.8 0.2 -22 -0.8 -32.9 -3.7 -37.9 -1.5 -2.5 -2.4 -3.2 -8.2 -5.6 -1.9 -0.8 1.1 -1.1 12.5 -1.1 11.1 0 14.4 0.3 12.5 1.1 -6 2.4 -7.4 3.5 -9.4 7.3 -2 3.8 -2.1 5.9 -2.6 43.3 l-0.5 39.3 -31.5 -39.5z"/>
  <path d="M360.5 186 c-3.3 -0.5 -3.6 -0.7 -1.8 -1.3 4 -1.4 5.4 -5.2 6.3 -17.5 2 -25 0.5 -59.9 -2.6 -64.7 -1 -1.5 -3.5 -3.1 -6.3 -3.9 -4.2 -1.3 -1.5 -1.5 30 -1.5 l34.6 -0.1 0.7 6.1 c0.3 3.4 0.6 8.3 0.6 10.8 l-0.1 4.6 -2.8 -6.2 c-4.8 -10.3 -11.8 -13.3 -30.7 -13.3 l-9.4 0 0 19.6 0 19.7 6.9 -0.6 c3.9 -0.3 7.9 -1.1 9.1 -1.7 2.9 -1.5 6 -6.9 6 -10.2 0 -1.6 0.5 -2.8 1 -2.8 0.6 0 1 6.3 1 17 0 16 -1.1 22 -2.3 13 -1.1 -8.1 -5.5 -11.6 -15.8 -12.7 l-6.1 -0.6 0.4 18.4 c0.4 24.2 1.3 25.6 15.5 26.6 9.6 0.7 19.2 -1.5 24.3 -5.5 3.8 -3 9 -12.2 9 -15.8 0 -1.3 0.3 -2.5 0.8 -2.7 0.4 -0.3 0.5 5.3 0.2 12.4 l-0.5 12.9 -32 0.3 c-17.6 0.1 -33.8 0 -36 -0.3z"/>
  <path d="M468.7 186.2 l-2.8 -0.3 3.2 -2.2 c1.8 -1.2 3.7 -3.5 4.2 -5.2 0.6 -1.6 1.2 -20.3 1.4 -41.4 l0.5 -38.4 -9.6 0.6 c-15.2 0.9 -20.8 4.6 -24.8 16.6 l-1.9 5.6 0.6 -7.9 c0.3 -4.3 0.5 -9.9 0.5 -12.3 l0 -4.3 41.4 0 41.3 0 0.6 6.8 c0.4 3.7 0.7 9.2 0.6 12.2 l0 5.5 -1.3 -4.7 c-3.3 -12.2 -10.2 -16.9 -24.9 -17.2 l-9.2 -0.1 0 38 c0 36 0.1 38.2 2 42 1.5 3.1 3 4.3 6.4 5.6 4.3 1.5 4.2 1.6 -10.5 1.5 -8.2 -0.1 -16.2 -0.2 -17.7 -0.4z"/>
  <path d="M537.3 185.7 c4.6 -1.1 7.8 -4.6 8.8 -9.9 1.1 -5.6 1.1 -62 0 -67.7 -1 -5.1 -3.7 -8.1 -8.9 -9.8 -3.1 -1 0.5 -1.2 21.3 -0.9 28.7 0.4 33.4 1.3 39.6 7.5 6.9 6.9 7.5 20.7 1.2 28.2 -2.6 3.1 -9.1 6.9 -11.7 6.9 -3 0 -2.5 1.9 0.9 3.6 4.9 2.3 7.8 6.1 14 18.3 6.6 13.3 12.7 20.3 19.8 22.9 l5.2 2 -13 -0.5 c-10.7 -0.3 -13.2 -0.7 -14.3 -2.1 -0.8 -0.9 -4.5 -8.1 -8.4 -15.9 -11.1 -22.7 -13.8 -25.3 -25.8 -25.3 l-6 0 0 9.3 c0 13.3 1.6 26.1 3.5 29.1 0.9 1.4 3.5 3.1 5.8 3.9 3.9 1.3 2.6 1.4 -15.6 1.3 -12.7 -0.1 -18.6 -0.4 -16.4 -0.9z m39.3 -46.2 c8.5 -2.5 12.5 -8.3 12.6 -18 0.1 -15.4 -5.9 -21.7 -20.7 -21.9 l-8 -0.1 -0.3 20.8 -0.2 20.7 5.8 0 c3.2 0 8.1 -0.7 10.8 -1.5z"/>
  <path d="M112.8 123.3 c-3.3 -0.8 -2 -3.3 1.7 -3.3 2.8 0 3.5 0.4 3.5 2 0 2 -1.4 2.3 -5.2 1.3z"/>
 </g>
 <g fill="#f7f7f7">
  <path d="M131.3 205.5 c-4.2 -1.8 -4.2 -3.5 -0.2 -3.5 2.9 0 3 -0.1 2.4 -3.2 -0.4 -1.8 -1.3 -4.3 -2.1 -5.5 -0.8 -1.2 -1.4 -3.5 -1.4 -5.2 0 -1.6 -0.6 -3.1 -1.5 -3.5 -0.8 -0.3 -1.5 -1.5 -1.5 -2.6 0 -1.6 -0.6 -2 -3.5 -2 -1.9 0 -3.5 -0.4 -3.5 -1 0 -0.5 -1.1 -1 -2.5 -1 -1.8 0 -2.5 -0.5 -2.5 -2 0 -1.1 -0.6 -2 -1.4 -2 -0.8 0 -1.7 -1 -1.9 -2.2 -0.3 -1.7 -0.5 -1.4 -0.6 1 -0.1 3 -0.3 3.2 -3.8 3.2 -3.7 0 -3.7 0 -1.5 1.6 1.5 1 2.2 2.5 2.2 4.9 0 3.1 0.3 3.4 3.3 3.7 3 0.3 3.2 0.6 3.5 4.3 l0.2 4 -6 -6.5 c-12.4 -13.3 -23.9 -30.2 -35.5 -52.3 -10.7 -20.3 -21.5 -47.9 -21.5 -54.8 0 -3.9 3.2 -6.9 7.4 -6.9 9.1 0 27.6 13.9 37.2 28.1 4.4 6.3 4.7 7.2 3.1 8 -0.9 0.6 -2.4 2.4 -3.3 4.1 -2.3 4.5 -0.5 8.1 5.4 10.6 2.6 1.1 5.6 2.2 6.7 2.4 1.5 0.2 3.3 3.7 7.6 14.8 3.2 8 6.2 15.6 6.8 17 1.2 2.9 14.5 37.6 15.4 40.3 1.1 3 3.1 1.9 4.8 -2.6 20 -52.5 27.2 -69.7 29.2 -69.7 2.3 0 8.5 -2.7 11 -4.8 1 -1 1.7 -2.9 1.7 -5.3 0 -3.1 -0.5 -4.1 -2.9 -5.5 -2.8 -1.6 -2.9 -1.9 -1.6 -4.3 2.3 -4.5 11.4 -15.2 17 -20.2 16.1 -14.1 30.7 -16.8 30.7 -5.8 0 3.7 -3.4 15.3 -7.5 25.4 -10.2 25.2 -26.2 53.5 -41.2 72.6 -6.8 8.7 -20.5 21.1 -27.2 24.7 -6.9 3.7 -9.3 4 -9.3 1.3 0 -1.4 -0.6 -1.7 -2.5 -1.3 -1.4 0.2 -2.5 1.1 -2.5 1.8 0 1.8 -2.6 1.7 -6.7 -0.1z m28.7 -14.5 c-1.5 -0.9 -0.4 -14 1.1 -14 0.5 0 0.9 -0.7 0.9 -1.5 0 -0.8 -0.9 -1.5 -1.9 -1.5 -1.1 0 -2.1 -0.6 -2.4 -1.2 -0.2 -0.7 -0.8 -0.1 -1.2 1.5 -0.4 1.5 -1.1 2.7 -1.5 2.7 -0.4 0 -1 1.2 -1.2 2.8 -0.3 1.5 -1.1 4.8 -1.9 7.4 -1.2 4.5 -1.2 4.8 1 6.7 l2.4 2.1 2.9 -2.2 c2.1 -1.4 2.6 -2.3 1.8 -2.8z m-57 -17.5 c0 -0.8 -0.4 -1.5 -1 -1.5 -0.5 0 -1 0.7 -1 1.5 0 0.8 0.5 1.5 1 1.5 0.6 0 1 -0.7 1 -1.5z m67.5 -1.5 c0.3 -0.5 1.7 -1 3.1 -1 1.6 0 2.4 -0.6 2.4 -1.7 0 -0.9 0.5 -3.2 1.2 -5 0.9 -2.4 1.8 -3.3 3.5 -3.3 1.3 0 2.3 -0.4 2.3 -1 0 -0.5 0.6 -1 1.4 -1 1.8 0 6.6 -5.9 6.6 -8.2 0 -2.3 -2.3 -2.3 -7.7 0 -2.7 1 -4.3 2.3 -4.3 3.4 0 2.3 -6.1 3.4 -10.8 2 -2 -0.6 -3.6 -1 -3.7 -0.9 0 0.1 -1.2 2.7 -2.7 5.7 l-2.8 5.5 3 0.3 c2.6 0.3 3 0.7 3 3.3 0 2.4 0.4 2.9 2.4 2.9 1.4 0 2.8 -0.4 3.1 -1z"/>
  <path d="M121.3 199.5 l-2.8 -2.4 3.8 -0.1 c3.3 0 3.7 0.3 3.7 2.5 0 3.1 -1.1 3.2 -4.7 0z"/>
  <path d="M137.9 156.3 c-0.6 -1.5 -1.9 -5.5 -2.9 -8.8 -4 -14 -10.5 -21.1 -22.4 -24.6 -9.1 -2.7 -12.7 -4.6 -12 -6.2 0.3 -0.8 4 -2.4 8.3 -3.7 8.2 -2.4 17 -7.7 20.5 -12.3 1.1 -1.5 3.6 -7.6 5.6 -13.5 4.8 -14.5 6 -14.5 10.6 -0.1 5.1 15.9 11.6 22.1 27.7 26.4 5.1 1.4 7.9 3.6 6.4 5.1 -0.2 0.3 -4.5 1.9 -9.3 3.6 -15.9 5.6 -19.5 9.4 -24.9 26 -3.5 11.1 -5.6 13.3 -7.6 8.1z m30.1 -39.3 c-1.9 -1.3 -3 -1.3 -3 0 0 0.6 1 1 2.3 1 1.8 0 1.9 -0.2 0.7 -1z"/>
 </g>
 <g fill="#efefef">
  <path d="M132.5 205.6 c-6 -2.2 -12.6 -6.8 -18.7 -13 -8 -7.9 -14.7 -15.8 -16.5 -19.2 -0.7 -1.5 -2.5 -3.8 -3.8 -5.2 -1.4 -1.4 -2.5 -3.1 -2.5 -3.8 0 -0.8 -0.4 -1.4 -1 -1.4 -0.5 0 -1 -0.5 -1 -1.1 0 -0.6 -1.1 -3.3 -2.5 -6 -1.3 -2.7 -2.2 -4.9 -1.8 -4.9 0.3 0 0 -0.7 -0.7 -1.5 -0.7 -0.9 -1 -1.9 -0.6 -2.3 0.4 -0.4 1.6 0.3 2.6 1.5 1 1.3 3 2.7 4.4 3.3 2.3 0.8 3.2 3 2.7 6.3 -0.3 1.8 3.1 6.7 4.7 6.8 1.2 0 1.3 0.2 0.3 0.6 -0.9 0.4 -0.3 1 1.8 1.9 3.5 1.5 4.3 1.1 6.7 -3.1 0.6 -1.1 1.7 -2 2.5 -2 1 0 1.4 -1.3 1.4 -4.2 0 -2.3 0.4 -4.5 0.9 -5 0.5 -0.4 0.7 -0.3 0.3 0.2 -0.3 0.6 -0.2 1.7 0.4 2.5 0.7 1.2 0.9 1.1 0.9 -0.6 0 -1.1 0.5 -2.5 1.2 -3.2 0.9 -0.9 0.9 -1.2 0 -1.2 -0.7 0 -1.2 -0.8 -1.2 -1.8 0 -1 -0.5 -2.3 -1.1 -2.9 -1.5 -1.5 -0.5 -4.2 1.5 -3.9 2.2 0.3 2.6 0.9 3.1 4.9 0.3 1.9 1.3 5 2.4 6.9 1 1.8 2.2 4.7 2.6 6.5 l0.6 3.2 -3.2 -0.9 c-4.1 -1.2 -5.4 -0.1 -4.4 3.7 0.5 1.5 0.8 3.1 0.7 3.6 -0.1 0.4 0.5 0.7 1.3 0.7 0.8 0 1.5 0.8 1.5 1.8 0 1.3 0.8 1.8 3.3 1.9 1.7 0.1 2.3 -0.1 1.3 -0.4 -1.5 -0.4 -1.6 -0.7 -0.5 -1.5 1.1 -0.7 1.1 -1.1 0.2 -1.5 -0.7 -0.2 -1.3 -0.9 -1.3 -1.4 0 -0.6 0.5 -0.7 1 -0.4 0.6 0.3 1 -0.3 1 -1.4 0 -1.4 -0.6 -2.1 -2 -2.1 -1.1 0 -2 -0.4 -2 -1 0 -0.5 0.9 -0.6 2.1 -0.2 1.8 0.7 10.8 15.2 9.4 15.2 -0.4 0 0.1 1 0.9 2.2 0.9 1.2 1.6 3.2 1.6 4.5 0 1.2 0.4 2.4 0.9 2.8 0.5 0.3 1.7 3 2.6 6 1.2 4.3 2 5.5 3.6 5.5 1.1 0 2.2 -0.8 2.5 -1.7 0.3 -1 0.9 -2.5 1.4 -3.3 2 -3.2 3.8 -7.8 5.4 -13.5 1 -3.3 2.7 -8 3.8 -10.4 1.1 -2.5 2.1 -5.3 2.3 -6.2 0.2 -0.9 1.8 -4.6 3.5 -8.2 2.6 -5.5 3.4 -6.4 5.3 -6 2.2 0.4 2.2 0.4 0.3 -1.1 -2 -1.6 -2 -1.6 0 -1.6 1.2 0 2.1 -0.6 2.2 -1.2 0.9 -8.9 3.6 -17.4 5.7 -18.2 1.2 -0.4 1.5 0.5 1.5 4.4 0 4.8 -1.5 7.4 -3 5 -0.5 -0.8 -0.9 -0.7 -1.4 0.6 -0.3 0.9 -0.4 1.9 -0.1 2.2 0.3 0.3 0.5 0 0.5 -0.8 0 -0.9 0.3 -1 1.3 -0.1 0.8 0.6 1.6 0.9 1.9 0.6 0.2 -0.3 0.5 2.1 0.5 5.2 0 3.8 0.4 5.8 1.3 6.1 0.9 0.3 1.1 -0.2 0.7 -1.7 -0.5 -1.9 0.3 -2.6 2.6 -2.2 0.4 0 0.7 -0.3 0.7 -0.9 0 -0.6 0.3 -0.9 0.8 -0.9 1.7 0.3 3.3 -0.2 2.9 -0.8 -0.3 -0.5 1.3 -0.8 3.6 -0.8 3.3 0 4.2 -0.4 4.5 -1.9 0.3 -1.4 0 -1.7 -1.3 -1.3 -0.9 0.4 -1.4 0.3 -1 -0.3 0.3 -0.6 1.3 -1 2 -1 0.8 0 1.2 -0.6 0.9 -1.5 -0.3 -0.8 -0.2 -2 0.2 -2.7 0.5 -0.7 0.9 -1.7 0.9 -2.2 0 -1.7 2.2 -1.7 2.9 -0.1 0.3 0.9 0.2 1.3 -0.4 1 -0.6 -0.3 -1 0.1 -1 1 0 0.9 -0.5 1.3 -1.1 0.9 -0.7 -0.4 -1 0.1 -0.7 1.1 0.1 1 1 2 1.8 2.2 1.1 0.3 1.2 0.2 0.3 -0.4 -0.9 -0.6 -0.7 -1.2 0.8 -2.2 1.2 -0.7 1.8 -0.8 1.5 -0.3 -0.3 0.5 0 1.4 0.7 2 1 0.8 1.3 0.5 1.5 -1.5 0.1 -1.5 0.5 -2.9 1 -3.2 0.7 -0.6 1.4 -2.8 1.5 -4.8 0 -0.7 0.4 -1.3 0.9 -1.3 1.9 0 3.5 -2.6 4.1 -6.8 0.4 -2.3 0.3 -4.2 -0.1 -4.2 -0.5 0 -0.9 -0.7 -0.9 -1.5 0 -0.8 0.3 -1.2 0.7 -1 0.7 0.5 3 -1.8 4.5 -4.4 0.5 -0.9 0.4 -1.2 -0.3 -0.7 -0.7 0.4 -1.2 0.1 -1.2 -0.8 0 -0.9 0.5 -1.6 1 -1.6 0.6 0 1 -0.7 1 -1.5 0 -0.8 1 -2.4 2.3 -3.6 1.2 -1.2 1.6 -1.9 1 -1.5 -0.7 0.4 -1.3 0.3 -1.3 -0.2 0 -0.6 0.7 -1.3 1.6 -1.6 1 -0.4 1.4 -1.2 1 -2.2 -1.1 -2.8 4.6 -10.4 7.8 -10.4 2 0 2 0.9 0.1 3 -0.9 1 -1.7 3.1 -2 4.9 -0.2 1.7 -1.5 4.5 -2.9 6.1 -1.6 2 -2.3 3.8 -2 5.4 0.2 1.3 -0.2 2.9 -1.1 3.6 -0.8 0.7 -1.2 1.6 -0.9 2.1 1 1.6 -0.8 7.7 -2.9 10 -1.2 1.3 -2.3 3.2 -2.4 4.3 -0.2 1.2 -0.8 2.3 -1.3 2.4 -0.6 0.2 -0.7 0.8 -0.4 1.3 0.7 1.3 -2.4 4.9 -4.3 4.9 -0.7 0 -1.3 0.5 -1.3 1.1 0 0.5 -0.4 0.8 -0.9 0.5 -0.4 -0.3 -0.6 0.6 -0.3 1.9 0.2 1.4 -0.3 3.6 -1.2 4.9 -3.2 5 -5.6 9.7 -4.5 9.1 1.4 -1 -0.5 2.7 -2.5 4.8 -0.8 0.8 -2.9 4.1 -4.7 7.3 -1.7 3.3 -3.5 6.1 -3.9 6.4 -0.4 0.3 -1.4 1.9 -2.3 3.6 -0.9 1.7 -7 8.6 -13.6 15.3 -9.4 9.4 -13.4 12.7 -17.7 14.6 -6.1 2.7 -12.7 3.1 -17.9 1.1z m17.7 -5.8 c1.5 -1.1 1.5 -1.5 0.2 -2.6 -1.2 -1.1 -1.4 -1 -1.4 0.7 0 1.1 -0.6 2.2 -1.2 2.4 -0.7 0.3 -0.8 0.6 -0.2 0.6 0.5 0.1 1.8 -0.5 2.6 -1.1z m20.6 -18.4 c1.4 -1.5 1.4 -1.6 -0.3 -1.3 -1 0.2 -2 1 -2.3 1.7 -0.5 1.7 0.6 1.5 2.6 -0.4z m4.6 -7.3 c-0.8 -0.9 -2.2 1.2 -1.7 2.6 0.6 1.5 0.7 1.4 1.3 -0.3 0.4 -1 0.6 -2.1 0.4 -2.3z m6.3 -7.1 c0.6 -1.6 0.8 -3 0.4 -3 -0.3 0 -1.2 1.4 -1.8 3 -0.6 1.7 -0.8 3 -0.4 3 0.3 0 1.2 -1.3 1.8 -3z m5.7 -2.6 c0.8 -2.1 0.8 -2.4 -0.3 -2.4 -0.5 0 -1.1 0.9 -1.4 2 -0.6 2.4 0.8 2.7 1.7 0.4z"/>
  <path d="M139.3 155.4 c0 -0.7 0.4 -1.1 0.9 -0.8 0.4 0.3 0.8 0.1 0.8 -0.3 0 -0.5 -0.9 -1.4 -2 -2.1 -1.1 -0.7 -2 -2.2 -2 -3.5 0 -1.7 0.2 -1.9 0.9 -0.7 0.6 0.8 0.7 1.8 0.4 2.3 -0.3 0.5 0.4 0.3 1.5 -0.4 2.8 -1.7 3.6 -0.7 2.8 3.4 -0.6 3.2 -3.3 4.9 -3.3 2.1z"/>
  <path d="M80.5 143.8 c-3.5 -2.4 -7 -8.4 -5.4 -9.4 0.6 -0.3 1.3 0.3 1.6 1.5 0.3 1.2 0.9 2.1 1.3 2.1 1.5 0 5.1 3.9 5.5 5.9 0.2 1.2 0.3 2.1 0.2 2 -0.1 0 -1.5 -1 -3.2 -2.1z"/>
  <path d="M144.3 140.9 c0.5 -4.2 2.2 -8.6 4.2 -10.5 2.6 -2.7 1.9 2.7 -0.9 6.5 -1.4 1.8 -2.2 3.9 -2 4.6 0.3 0.7 0 1.6 -0.6 2 -0.8 0.5 -1 -0.3 -0.7 -2.6z"/>
  <path d="M113 140.3 c0 -1.3 -0.2 -1.5 -0.9 -0.5 -0.6 1 -1.5 0.6 -3.5 -1.8 -1.4 -1.7 -2.4 -3.6 -2 -4.1 0.3 -0.5 0 -0.9 -0.5 -0.9 -0.6 0 -1.1 -1.1 -1.1 -2.5 0 -1.4 0.4 -2.5 0.9 -2.5 0.9 0 6.1 7.1 6.1 8.5 0 0.5 0.7 1.6 1.6 2.6 1 1.1 1.2 1.9 0.5 2.4 -0.6 0.3 -1.1 -0.2 -1.1 -1.2z"/>
  <path d="M129 131.5 c-1.3 -1.4 -2.1 -2.8 -1.7 -3.1 0.9 -0.9 5 2.3 5.3 4.1 0.3 2.2 -0.9 1.9 -3.6 -1z"/>
  <path d="M71.9 129.3 c0 -0.5 -0.3 -1.7 -0.5 -2.8 -0.3 -1.1 -0.7 -2.9 -0.9 -4 -0.2 -1.1 -0.4 -2.2 -0.4 -2.5 -0.1 -0.3 -0.5 0.2 -1 0.9 -0.8 1.2 -1.1 0.9 -1.6 -1.2 -0.4 -1.5 -1.1 -2.7 -1.5 -2.7 -0.4 0 -1 -0.7 -1.3 -1.4 -0.5 -1.2 -0.1 -1.3 1.6 -0.7 1.2 0.5 2.1 1.7 2 2.6 -0.1 1.3 0.2 1.4 1 0.6 1.7 -1.7 2.4 -1.3 3.2 1.7 1.1 3.6 1.2 10.2 0.3 10.2 -0.5 0 -0.8 -0.3 -0.9 -0.7z"/>
  <path d="M151.5 128.3 c0.2 -1 0.4 -2.1 0.4 -2.5 0.2 -1.4 6.3 -6.3 7.9 -6.3 0.9 0 1.8 -0.8 2 -1.7 0.2 -1 -0.1 -1.8 -0.6 -1.8 -1.9 0 -6.2 -4.9 -5.6 -6.5 0.5 -1.1 0.2 -1.4 -1 -0.9 -2.3 0.9 -7.6 -3.3 -7.6 -6.1 0 -1.3 -0.6 -3 -1.2 -3.7 -1.4 -1.4 -1.7 -4.3 -0.5 -5.2 0.4 -0.3 0.5 -0.3 0.3 0 -0.2 0.3 0.4 1.4 1.5 2.5 1.1 1.1 1.6 2.5 1.2 3.5 -0.4 1.2 -0.3 1.5 0.5 1 0.7 -0.4 1.2 -0.3 1.2 0.1 0 2.6 7.3 7.8 15.5 11 5 1.9 9.7 3.7 10.5 3.8 0.8 0.2 1.6 0.4 1.8 0.4 0.7 0.2 -2.4 2.8 -4.5 3.9 -1.2 0.7 -2.9 1.2 -3.8 1.2 -2.1 0 -14.5 5.8 -16.3 7.7 -1.8 1.7 -2.1 1.7 -1.7 -0.4z"/>
  <path d="M122 125.1 c-3.8 -2.1 -6.8 -3.2 -9.5 -3.5 -1.8 -0.2 -3.1 -1 -3.3 -2 -0.2 -0.9 -1 -1.6 -1.9 -1.6 -0.8 0 -1.3 -0.5 -1.1 -1.2 0.5 -1.4 5.7 -3 7.6 -2.3 0.7 0.3 1.1 0.1 0.8 -0.4 -0.7 -1.1 5.3 -4.1 7.1 -3.4 0.7 0.3 1.3 -0.2 1.3 -1.1 0 -0.8 1.2 -1.9 2.6 -2.2 1.4 -0.4 3 -1.6 3.5 -2.8 1.3 -3 5.9 -11 6.7 -11.8 0.4 -0.4 0.8 0.9 0.8 2.8 0.1 1.8 -0.3 3.4 -0.7 3.4 -0.5 0 -0.9 -0.7 -0.9 -1.7 0 -2.5 -1.1 -0.9 -1.4 2.1 -0.3 2.3 -0.1 2.4 1.2 1.4 0.9 -0.7 -0.4 1.2 -2.9 4.3 -5.7 7.2 -8.2 9 -12.5 9.2 -2.8 0.2 -3.4 0.6 -3.2 2.1 0.2 1 1.8 2.7 3.7 3.7 3.3 1.8 5.1 3.5 5.1 5.2 0 0.9 -1.1 0.8 -3 -0.2z"/>
  <path d="M95.9 110.8 c-2.5 -2.1 -5.3 -7.2 -4.1 -7.6 1.1 -0.3 -2.9 -5.2 -4.4 -5.3 -0.5 0 -1.9 -1.3 -3.1 -2.9 -1.9 -2.3 -2 -2.9 -0.8 -3.4 0.8 -0.3 2.2 0.5 3.3 1.9 1.1 1.3 2.2 2.2 2.4 1.9 0.8 -0.7 6.8 6.4 6.8 8.1 0 0.8 0.9 2 1.9 2.7 1.6 1.1 1.7 1.7 0.7 3.6 -1 1.9 -1.4 2 -2.7 1z"/>
  <path d="M183.9 108.3 c-0.7 -2 -0.6 -3 0.5 -4.1 1.3 -1.3 1.5 -1 1.3 2.6 -0.1 2.3 -0.3 4.2 -0.5 4.2 -0.1 0 -0.7 -1.2 -1.3 -2.7z"/>
  <path d="M61.5 106.1 c-0.8 -1.6 -1.2 -3.8 -0.9 -4.8 0.5 -1.5 0.4 -1.6 -0.5 -0.3 -0.9 1.3 -1.1 1.3 -1.2 0 -0.1 -0.8 -0.1 -2.1 0 -2.9 0.2 -0.7 -0.2 -1 -0.8 -0.7 -1.1 0.7 -3.7 -10.2 -2.6 -11.2 0.3 -0.3 1.4 -0.2 2.3 0.4 1.8 1.1 7.1 15.2 7.1 19.1 0.1 3.4 -1.7 3.7 -3.4 0.4z"/>
  <path d="M191.9 94.3 c1.6 -3.1 6.9 -7.3 7.5 -6 0.3 0.7 0.5 0.6 0.5 -0.4 0.1 -1.4 1.4 -2.8 6.3 -6.7 0.9 -0.7 2.6 -1.5 3.9 -1.7 1.2 -0.3 2.5 -0.8 2.8 -1.2 1.1 -1.5 6.1 -3.3 6.1 -2.2 0 0.6 0.4 0.7 1 0.4 0.5 -0.3 0.7 0 0.5 0.7 -0.6 1.3 -8.8 7.2 -10.2 7.4 -1.6 0.2 -4.9 1.8 -7.8 3.8 -1.6 1.1 -3.7 1.9 -4.6 1.8 -1.2 -0.2 -1.5 0.5 -1.4 2.8 0.1 2.3 -0.1 2.7 -1.1 1.9 -0.8 -0.7 -1.4 -0.7 -1.9 0.1 -1.1 1.8 -2.7 1.1 -1.6 -0.7z"/>
  <path d="M136.3 88.4 c-0.7 -1.8 1.6 -6.8 3 -6.6 0.4 0.1 0.7 0.5 0.6 0.8 0 0.4 0.5 1.1 1.3 1.5 1 0.7 1 0.9 -0.2 0.9 -1.3 0 -1.3 0.1 0 1 0.9 0.6 1 1 0.3 1 -0.6 0 -1.9 0.7 -2.7 1.6 -1.5 1.4 -1.7 1.4 -2.3 -0.2z"/>
  <path d="M77.9 88.3 c-0.1 -0.5 -0.1 -1 -0.1 -1.4 0 -0.3 -0.8 -1.1 -2 -1.8 -1.1 -0.7 -1.7 -0.8 -1.3 -0.2 0.3 0.7 -0.2 1.1 -1.4 1.1 -1.1 0 -2.5 -0.9 -3.1 -1.9 -0.6 -1.2 -2.3 -2.1 -4.3 -2.3 -2.2 -0.2 -3.2 -0.8 -3.1 -1.9 0.1 -1.3 -0.7 -1.6 -3.3 -1.5 -4.1 0.2 -5.2 -0.9 -2.4 -2.3 2.7 -1.5 5.6 -1.4 7 0.2 0.6 0.8 2.9 1.9 5.1 2.6 2.2 0.6 5.3 2.5 6.9 4 1.7 1.6 3.3 2.6 3.7 2.3 0.4 -0.4 0.4 -0.1 0 0.6 -0.4 0.6 -0.2 1.2 0.4 1.2 0.6 0 0.8 0.5 0.5 1 -0.7 1.2 -2.4 1.3 -2.6 0.3z"/>
 </g>
 <g fill="#e6e6e6">
 </g>
 <g fill="#dedede">
 </g>
 <g fill="#d6d6d6">
 </g>
 <g fill="#cecece">
 </g>
 <g fill="#c5c5c5">
 </g>
 <g fill="#bdbdbd">
 </g>
 <g fill="#b5b5b5">
 </g>
 <g fill="#adadad">
 </g>
 <g fill="#a5a5a5">
 </g>
 <g fill="#9c9c9c">
 </g>
 <g fill="#949494">
 </g>
 <g fill="#8c8c8c">
 </g>
 <g fill="#848484">
 </g>
 <g fill="#7b7b7b">
 </g>
 <g fill="#737373">
 </g>
 <g fill="#6b6b6b">
 </g>
 <g fill="#636363">
 </g>
 <g fill="#5a5a5a">
 </g>
 <g fill="#525252">
 </g>
 <g fill="#4a4a4a">
 </g>
 <g fill="#424242">
 </g>
 <g fill="#3a3a3a">
 </g>
 <g fill="#313131">
 </g>
 <g fill="#292929">
 </g>
 <g fill="#212121">
 </g>
 <g fill="#191919">
 </g>
 <g fill="#101010">
 </g>
 <g fill="#080808">
 </g>
 <g fill="#000000">
 </g>
</svg>