<svg version="1.1" xmlns="http://www.w3.org/2000/svg" viewBox="0 0 285 318">
  <circle cx="142.5" cy="159" r="148" fill="white"/>
  <path d="M0 0 C5.24677545 2.8237854 9.97482341 6.25232559 14.625 9.9609375 C15.18703125 10.37601563 15.7490625 10.79109375 16.328125 11.21875 C25.00055902 17.98649056 31.81352396 28.16072051 36.625 37.9609375 C51.0770776 33.15026501 51.0770776 33.15026501 61.0703125 22.26953125 C63.75633801 16.10132296 65.79944363 9.67201932 67.828125 3.26171875 C68.625 0.9609375 68.625 0.9609375 69.625 -0.0390625 C71.62458364 -0.07987033 73.62545254 -0.08160606 75.625 -0.0390625 C75.83592285 0.58548828 76.0468457 1.21003906 76.26416016 1.85351562 C77.24448625 4.72800407 78.24703263 7.5942744 79.25 10.4609375 C79.58128906 11.44320312 79.91257812 12.42546875 80.25390625 13.4375 C82.95089658 21.07049149 85.85551168 27.55011184 92.84375 32.01953125 C93.9265625 32.47457031 95.009375 32.92960937 96.125 33.3984375 C97.2078125 33.87152344 98.290625 34.34460938 99.40625 34.83203125 C102.4980223 35.91640285 105.38271022 36.53611941 108.625 36.9609375 C109.181875 36.05472656 109.73875 35.14851563 110.3125 34.21484375 C119.43868344 19.56867769 119.43868344 19.56867769 125.625 13.9609375 C126.285 13.9609375 126.945 13.9609375 127.625 13.9609375 C127.625 13.3009375 127.625 12.6409375 127.625 11.9609375 C134.88193516 4.83244367 144.67588894 -2.20307231 155.125 -2.6640625 C158.42945697 -2.45189833 159.44101698 -2.17368422 162.1875 -0.1640625 C164.84064967 3.75798485 164.9059327 6.18984321 164.625 10.9609375 C163.95056896 13.92025032 162.97136203 16.73453136 161.9375 19.5859375 C161.63352295 20.43494629 161.3295459 21.28395508 161.01635742 22.15869141 C148.87029302 55.08698418 132.64566125 88.04453186 108.625 113.9609375 C108.0769873 114.55277832 107.52897461 115.14461914 106.96435547 115.75439453 C87.04852075 137.00425111 87.04852075 137.00425111 73.0625 137.4609375 C58.73250081 137.17961236 47.64169523 126.16722407 38.0234375 116.625 C36.625 114.9609375 36.625 114.9609375 36.625 112.9609375 C35.635 112.6309375 34.645 112.3009375 33.625 111.9609375 C31.70626623 109.70890256 29.93539036 107.46556497 28.1875 105.0859375 C27.65890381 104.37050781 27.13030762 103.65507812 26.58569336 102.91796875 C11.95577054 82.84218665 -0.11419767 61.06732853 -9.9375 38.2734375 C-10.67033203 36.57392944 -10.67033203 36.57392944 -11.41796875 34.84008789 C-21.18934936 11.58358792 -21.18934936 11.58358792 -19.375 2.9609375 C-14.57599241 -4.98224747 -7.595763 -3.32314631 0 0 Z M28.625 41.9609375 C29.625 44.9609375 29.625 44.9609375 29.625 44.9609375 Z M43.625 51.9609375 C43.94443105 55.90058716 45.02246152 58.9830919 46.71484375 62.49609375 C50.57853457 70.85142013 53.73650962 79.48367801 57 88.0859375 C61.699601 100.45456284 66.51911216 112.75378007 71.625 124.9609375 C74.91739956 121.95686507 76.06881064 118.59204625 77.5 114.4609375 C79.15221105 109.75352054 80.94334183 105.18900975 83.04296875 100.66015625 C85.67217032 94.96289539 87.89895281 89.1607223 90.0625 83.2734375 C90.84097104 81.17181024 91.61961745 79.07024794 92.3984375 76.96875 C92.77452148 75.95071289 93.15060547 74.93267578 93.53808594 73.88378906 C94.5233939 71.23416937 95.52542867 68.59201264 96.5390625 65.953125 C96.82080322 65.21666748 97.10254395 64.48020996 97.39282227 63.72143555 C97.90791776 62.37775632 98.42642671 61.03537869 98.94897461 59.69458008 C99.99835105 56.94057921 100.625 54.94142353 100.625 51.9609375 C94.61803753 52.26128562 90.81629189 54.87421006 86.625 58.9609375 C81.55694004 65.43289219 75.625 78.66144834 75.625 86.9609375 C73.645 86.6309375 71.665 86.3009375 69.625 85.9609375 C69.43389648 85.38649902 69.24279297 84.81206055 69.04589844 84.22021484 C68.16474784 81.58895707 67.27000814 78.96251241 66.375 76.3359375 C66.07464844 75.43230469 65.77429688 74.52867187 65.46484375 73.59765625 C62.48079825 64.89948106 58.37961724 58.16904778 50.625 52.9609375 C48.13215829 52.16285258 46.27098042 52.01606209 43.625 51.9609375 Z " fill="#0a1628" transform="translate(72.375,90.0390625)"/>
</svg>
